<mxfile host="app.diagrams.net" modified="2020-12-23T02:59:45.275Z" agent="5.0 (Macintosh; Intel Mac OS X 10_15_7) AppleWebKit/537.36 (KHTML, like Gecko) Chrome/87.0.4280.88 Safari/537.36" etag="J-abs6YFVqOD1gKT-Nj7" version="14.1.1" type="github">
  <diagram id="C5RBs43oDa-KdzZeNtuy" name="Page-1">
    <mxGraphModel dx="946" dy="557" grid="1" gridSize="10" guides="1" tooltips="1" connect="1" arrows="1" fold="1" page="1" pageScale="1" pageWidth="827" pageHeight="1169" math="0" shadow="0">
      <root>
        <mxCell id="WIyWlLk6GJQsqaUBKTNV-0" />
        <mxCell id="WIyWlLk6GJQsqaUBKTNV-1" parent="WIyWlLk6GJQsqaUBKTNV-0" />
        <mxCell id="n_MuFV8p2sRifEUavmp0-4" value="Extends" style="endArrow=block;endSize=16;endFill=0;html=1;" edge="1" parent="WIyWlLk6GJQsqaUBKTNV-1">
          <mxGeometry width="160" relative="1" as="geometry">
            <mxPoint x="589.5" y="296" as="sourcePoint" />
            <mxPoint x="589.5" y="196" as="targetPoint" />
          </mxGeometry>
        </mxCell>
        <mxCell id="n_MuFV8p2sRifEUavmp0-5" value="Expanded" style="swimlane;fontStyle=1;align=center;verticalAlign=top;childLayout=stackLayout;horizontal=1;startSize=26;horizontalStack=0;resizeParent=1;resizeParentMax=0;resizeLast=0;collapsible=1;marginBottom=0;fillColor=#f5f5f5;strokeColor=#666666;fontColor=#333333;" vertex="1" parent="WIyWlLk6GJQsqaUBKTNV-1">
          <mxGeometry x="510" y="110" width="160" height="86" as="geometry" />
        </mxCell>
        <mxCell id="n_MuFV8p2sRifEUavmp0-6" value="    " style="text;strokeColor=#d6b656;fillColor=#fff2cc;align=left;verticalAlign=top;spacingLeft=4;spacingRight=4;overflow=hidden;rotatable=0;points=[[0,0.5],[1,0.5]];portConstraint=eastwest;" vertex="1" parent="n_MuFV8p2sRifEUavmp0-5">
          <mxGeometry y="26" width="160" height="26" as="geometry" />
        </mxCell>
        <mxCell id="n_MuFV8p2sRifEUavmp0-7" value="" style="line;strokeWidth=1;fillColor=#f5f5f5;align=left;verticalAlign=middle;spacingTop=-1;spacingLeft=3;spacingRight=3;rotatable=0;labelPosition=right;points=[];portConstraint=eastwest;strokeColor=#666666;fontColor=#333333;" vertex="1" parent="n_MuFV8p2sRifEUavmp0-5">
          <mxGeometry y="52" width="160" height="8" as="geometry" />
        </mxCell>
        <mxCell id="n_MuFV8p2sRifEUavmp0-8" value="+ method(): void" style="text;strokeColor=#6c8ebf;fillColor=#dae8fc;align=left;verticalAlign=top;spacingLeft=4;spacingRight=4;overflow=hidden;rotatable=0;points=[[0,0.5],[1,0.5]];portConstraint=eastwest;" vertex="1" parent="n_MuFV8p2sRifEUavmp0-5">
          <mxGeometry y="60" width="160" height="26" as="geometry" />
        </mxCell>
        <mxCell id="n_MuFV8p2sRifEUavmp0-9" value="Target" style="swimlane;fontStyle=1;align=center;verticalAlign=top;childLayout=stackLayout;horizontal=1;startSize=26;horizontalStack=0;resizeParent=1;resizeParentMax=0;resizeLast=0;collapsible=1;marginBottom=0;fillColor=#f5f5f5;strokeColor=#666666;fontColor=#333333;" vertex="1" parent="WIyWlLk6GJQsqaUBKTNV-1">
          <mxGeometry x="510" y="290" width="160" height="86" as="geometry" />
        </mxCell>
        <mxCell id="n_MuFV8p2sRifEUavmp0-10" value="    " style="text;strokeColor=#d79b00;fillColor=#ffe6cc;align=left;verticalAlign=top;spacingLeft=4;spacingRight=4;overflow=hidden;rotatable=0;points=[[0,0.5],[1,0.5]];portConstraint=eastwest;" vertex="1" parent="n_MuFV8p2sRifEUavmp0-9">
          <mxGeometry y="26" width="160" height="26" as="geometry" />
        </mxCell>
        <mxCell id="n_MuFV8p2sRifEUavmp0-11" value="" style="line;strokeWidth=1;fillColor=#f5f5f5;align=left;verticalAlign=middle;spacingTop=-1;spacingLeft=3;spacingRight=3;rotatable=0;labelPosition=right;points=[];portConstraint=eastwest;strokeColor=#666666;fontColor=#333333;" vertex="1" parent="n_MuFV8p2sRifEUavmp0-9">
          <mxGeometry y="52" width="160" height="8" as="geometry" />
        </mxCell>
        <mxCell id="n_MuFV8p2sRifEUavmp0-12" value="+ method(): void" style="text;strokeColor=#6c8ebf;fillColor=#dae8fc;align=left;verticalAlign=top;spacingLeft=4;spacingRight=4;overflow=hidden;rotatable=0;points=[[0,0.5],[1,0.5]];portConstraint=eastwest;" vertex="1" parent="n_MuFV8p2sRifEUavmp0-9">
          <mxGeometry y="60" width="160" height="26" as="geometry" />
        </mxCell>
        <mxCell id="n_MuFV8p2sRifEUavmp0-18" value="&lt;div style=&quot;font-size: 17px&quot;&gt;void main() {&lt;/div&gt;&lt;div style=&quot;font-size: 17px&quot;&gt;&amp;nbsp; Target target = Target();&lt;/div&gt;&lt;div style=&quot;font-size: 17px&quot;&gt;&amp;nbsp; target.method();&lt;/div&gt;&lt;div style=&quot;font-size: 17px&quot;&gt;}&lt;/div&gt;&lt;div style=&quot;font-size: 17px&quot;&gt;&lt;br&gt;&lt;/div&gt;&lt;div style=&quot;font-size: 17px&quot;&gt;&lt;br&gt;&lt;/div&gt;&lt;div style=&quot;font-size: 17px&quot;&gt;class&amp;nbsp; Expanded {&lt;/div&gt;&lt;div style=&quot;font-size: 17px&quot;&gt;&amp;nbsp; void method() {&lt;/div&gt;&lt;div style=&quot;font-size: 17px&quot;&gt;&amp;nbsp; &amp;nbsp; print(&#39;Expanded&#39;);&lt;/div&gt;&lt;div style=&quot;font-size: 17px&quot;&gt;&amp;nbsp; }&lt;/div&gt;&lt;div style=&quot;font-size: 17px&quot;&gt;}&lt;/div&gt;&lt;div style=&quot;font-size: 17px&quot;&gt;&lt;br&gt;&lt;/div&gt;&lt;div style=&quot;font-size: 17px&quot;&gt;&lt;br&gt;&lt;/div&gt;&lt;div style=&quot;font-size: 17px&quot;&gt;class Target expanded Expanded&amp;nbsp;{&lt;/div&gt;&lt;div style=&quot;font-size: 17px&quot;&gt;&lt;div&gt;&amp;nbsp; @override&lt;/div&gt;&lt;div&gt;&amp;nbsp; void method() {&lt;/div&gt;&lt;div&gt;&amp;nbsp; &amp;nbsp; print(&#39;Target&#39;);&lt;/div&gt;&lt;div&gt;&amp;nbsp; }&lt;/div&gt;&lt;/div&gt;&lt;div style=&quot;font-size: 17px&quot;&gt;}&lt;/div&gt;" style="rounded=0;whiteSpace=wrap;html=1;align=left;fillColor=#fff2cc;strokeColor=none;" vertex="1" parent="WIyWlLk6GJQsqaUBKTNV-1">
          <mxGeometry x="130" y="40" width="290" height="410" as="geometry" />
        </mxCell>
        <mxCell id="n_MuFV8p2sRifEUavmp0-20" style="edgeStyle=orthogonalEdgeStyle;rounded=0;orthogonalLoop=1;jettySize=auto;html=1;exitX=1;exitY=0.5;exitDx=0;exitDy=0;entryX=1;entryY=0.5;entryDx=0;entryDy=0;endArrow=block;endFill=1;startArrow=blockThin;startFill=1;" edge="1" parent="WIyWlLk6GJQsqaUBKTNV-1" source="n_MuFV8p2sRifEUavmp0-12" target="n_MuFV8p2sRifEUavmp0-8">
          <mxGeometry relative="1" as="geometry" />
        </mxCell>
        <mxCell id="n_MuFV8p2sRifEUavmp0-21" value="子类重写父类方法" style="edgeLabel;html=1;align=center;verticalAlign=middle;resizable=0;points=[];" vertex="1" connectable="0" parent="n_MuFV8p2sRifEUavmp0-20">
          <mxGeometry x="0.1273" y="1" relative="1" as="geometry">
            <mxPoint as="offset" />
          </mxGeometry>
        </mxCell>
      </root>
    </mxGraphModel>
  </diagram>
</mxfile>
